<?xml version="1.0" encoding="UTF-8"?>
<svg id="Layer_1" data-name="Layer 1" xmlns="http://www.w3.org/2000/svg" viewBox="0 0 540 420">
  <defs>
    <style>
      .cls-1 {
        fill: #231f20;
      }

      .cls-2 {
        stroke-width: 7px;
      }

      .cls-2, .cls-3 {
        stroke: #fff;
      }

      .cls-2, .cls-3, .cls-4 {
        stroke-miterlimit: 10;
      }

      .cls-2, .cls-5 {
        fill: #39b54a;
      }

      .cls-6 {
        fill: #fff;
      }

      .cls-3 {
        fill: #50297a;
      }

      .cls-4 {
        fill: none;
        stroke: #231f20;
        stroke-linecap: round;
        stroke-width: 12px;
      }
    </style>
  </defs>
  <g>
    <ellipse class="cls-3" cx="270" cy="229.22" rx="162.19" ry="110.72"/>
    <ellipse class="cls-2" cx="270" cy="212.14" rx="162.19" ry="93.65"/>
    <g>
      <g>
        <circle class="cls-5" cx="373.44" cy="127.7" r="54.68"/>
        <g>
          <path class="cls-1" d="M373.44,158.64c-17.06,0-30.95-13.88-30.95-30.95s13.88-30.95,30.95-30.95,30.95,13.88,30.95,30.95-13.88,30.95-30.95,30.95Z"/>
          <path class="cls-6" d="M373.44,98.75c15.99,0,28.95,12.96,28.95,28.95s-12.96,28.95-28.95,28.95-28.95-12.96-28.95-28.95,12.96-28.95,28.95-28.95M373.44,94.75c-18.17,0-32.95,14.78-32.95,32.95s14.78,32.95,32.95,32.95,32.95-14.78,32.95-32.95-14.78-32.95-32.95-32.95h0Z"/>
        </g>
      </g>
      <circle class="cls-5" cx="166.56" cy="127.7" r="54.68"/>
      <g>
        <path class="cls-1" d="M166.56,158.64c-17.06,0-30.95-13.88-30.95-30.95s13.88-30.95,30.95-30.95,30.95,13.88,30.95,30.95-13.88,30.95-30.95,30.95Z"/>
        <path class="cls-6" d="M166.56,98.75c15.99,0,28.95,12.96,28.95,28.95s-12.96,28.95-28.95,28.95-28.95-12.96-28.95-28.95,12.96-28.95,28.95-28.95M166.56,94.75c-18.17,0-32.95,14.78-32.95,32.95s14.78,32.95,32.95,32.95,32.95-14.78,32.95-32.95-14.78-32.95-32.95-32.95h0Z"/>
      </g>
    </g>
  </g>
  <path class="cls-4" d="M164.23,182.37c4.74,39.21,50.07,69.65,103.75,69.65s99.02-30.43,103.75-69.65"/>
</svg>